<?xml version="1.0" encoding="UTF-8" standalone="no"?>
<svg
	xmlns:svg="http://www.w3.org/2000/svg"
	xmlns="http://www.w3.org/2000/svg"
	version="1.1"
	id="Capa_1"
	x="0px"
	y="0px"
	viewBox="0 0 141.7 141.7"
	enable-background="new 0 0 141.7 141.7"
	xml:space="preserve"
	fill="#50b848"
	stroke="#50b848">
	<path d="m 5,70v25h30v20L75,70 M5,70V45H35V25l40,45 z"/>
	<rect
		style="opacity:0.994175;fill:none;fill-opacity:0.996078;stroke-width:7;stroke-linecap:square;stroke-linejoin:round;stroke-dashoffset:10;stroke-opacity:1;stroke-miterlimit:4;stroke-dasharray:none"
		id="rect1716"
		width="70"
		height="90"
		x="95"
		y="25"/>
	<g
		style="fill:none;stroke-width:6;stroke-linecap:butt;stroke-linejoin:miter;stroke-opacity:1;stroke-miterlimit:4;stroke-dasharray:none">
		<path d="M80,35H95 M80,45H95 M80,55H95 M80,65H95 M80,75H95 M80,85H95 M80,95H95 M80,105H95
						M105,25V10 M115,25V10 M125,25V10 M135,25V10
						M105,130V115 M115,130V115 M125,130V115 M135,130V115"/>
		<path d="m95,50h10l10,-10"/>
		<path d="m95,70h20v15l10,10h10v20"/>
		<path d="m105,115v-10l5,-5"/>
		<path d="m 95,60 h 25 l 10,10"/>
	</g>
	<g
		style="opacity:0.994175;fill:none;fill-opacity:0.996078;stroke-width:3;stroke-linecap:butt;stroke-linejoin:round;stroke-miterlimit:4;stroke-dasharray:none;stroke-dashoffset:10;stroke-opacity:1">
		<circle cx="118.4682" cy="36" r="5"/>
		<circle cx="113" cy="97" r="5"/>
		<circle cx="133" cy="73" r="5"/>
	</g>
</svg>