<?xml version="1.0" encoding="UTF-8" standalone="no"?>
<svg
   xmlns:svg="http://www.w3.org/2000/svg"
   xmlns="http://www.w3.org/2000/svg"
   version="1.1"
   id="Capa_1"
   x="0px"
   y="0px"
   viewBox="0 0 141.7 141.7"
   enable-background="new 0 0 141.7 141.7"
   xml:space="preserve">
	<path
		style="opacity:0.994175;fill:#50b848;fill-opacity:1;stroke:none;stroke-width:6;stroke-linecap:round;stroke-linejoin:round;stroke-miterlimit:4;stroke-dasharray:none;stroke-dashoffset:0;stroke-opacity:1"
		d="M 20 10 C 14.46 10 10 14.46 10 20 L 10 120 C 10 125.54 14.46 130 20 130 L 120 130 C 125.54 130 130 125.54 130 120 L 130 35 L 95 10 L 20 10 z M 35 15 L 90 15 C 92.77 15 95 17.23 95 20 L 95 50 C 95 52.77 92.77 55 90 55 L 35 55 C 32.23 55 30 52.77 30 50 L 30 20 C 30 17.23 32.23 15 35 15 z M 30 65 L 110 65 C 115.54 65 120 69.46 120 75 L 120 115 C 120 120.54 115.54 125 110 125 L 30 125 C 24.46 125 20 120.54 20 115 L 20 75 C 20 69.46 24.46 65 30 65 z " />
	<rect	style="opacity:0.994175;fill:#50b848;fill-opacity:1;stroke:none;stroke-width:7;stroke-linecap:round;stroke-linejoin:round;stroke-miterlimit:4;stroke-dasharray:none;stroke-dashoffset:0;stroke-opacity:1"
				width="10" height="25" x="75" y="20" ry="2" />
</svg>