<?xml version="1.0" encoding="UTF-8" standalone="no"?>
<svg
	xmlns:svg="http://www.w3.org/2000/svg"
	xmlns="http://www.w3.org/2000/svg"
	version="1.1"
	id="Capa_1"
	x="0px"
	y="0px"
	viewBox="0 0 141.7 141.7"
	enable-background="new 0 0 141.7 141.7"
	xml:space="preserve">
	<path
		style="opacity:0.994175;fill:#cc3333;fill-opacity:1;stroke-width:8.27818;stroke-linecap:round;stroke-linejoin:round;stroke-miterlimit:4;stroke-dasharray:none"
		d="m 98.284271,24.038059 c -2.938028,-2.938028 -7.668573,-2.938028 -10.606601,0 L 70,41.715729 52.32233,24.038059 c -2.938028,-2.938028 -7.668573,-2.938028 -10.606601,0 l -17.67767,17.67767 c -2.938028,2.938028 -2.938028,7.668573 0,10.606601 L 41.715729,70 24.038059,87.67767 c -2.938028,2.938028 -2.938028,7.668573 0,10.606601 l 17.67767,17.677669 c 2.938028,2.93803 7.668573,2.93803 10.606601,0 L 70,98.284271 87.67767,115.96194 c 2.938028,2.93803 7.668573,2.93803 10.606601,0 L 115.96194,98.284271 c 2.93803,-2.938028 2.93803,-7.668573 0,-10.606601 L 98.284271,70 115.96194,52.32233 c 2.93803,-2.938028 2.93803,-7.668573 0,-10.606601 z" />
</svg>